<svg width="223" height="55" viewBox="0 0 223 55" fill="none" xmlns="http://www.w3.org/2000/svg">
<path d="M9.84 54.44C7.92 54.44 6.96 52.6267 6.96 49C6.96 47.0267 7.28 44.5733 7.92 41.64C8.61333 38.7067 9.68 35.3733 11.12 31.64C9.57333 31.7467 8.24 31.8267 7.12 31.88C6.05333 31.9333 5.22667 31.96 4.64 31.96C2.02667 31.96 0.72 30.7067 0.72 28.2C0.72 28.04 0.826667 27.96 1.04 27.96L2.56 28.36C8.16 28.36 11.4667 28.28 12.48 28.12C15.4133 21.24 19.0933 14.0133 23.52 6.44C23.8933 6.06666 24.8 5.88 26.24 5.88C27.68 5.88 28.4 6.22667 28.4 6.92L24.64 13.08C22.9867 15.8 21.4933 18.4133 20.16 20.92C18.88 23.3733 17.7067 25.72 16.64 27.96L29.84 27.32C31.76 27.2667 34.5333 26.9467 38.16 26.36C40.3467 22.0933 42.6667 18.0133 45.12 14.12C47.6267 10.1733 49.1733 8.2 49.76 8.2C50.4 8.2 51.0667 8.36 51.76 8.68C52.5067 8.94666 52.88 9.24 52.88 9.56C52.2933 10.36 51.68 11.2133 51.04 12.12C50.4 13.0267 49.6267 14.0933 48.72 15.32C40.72 25.9333 36.72 33.88 36.72 39.16C36.72 41.56 37.68 42.76 39.6 42.76L42.32 42.36C42.48 42.36 42.56 42.4133 42.56 42.52C42.56 42.7867 42.08 43.08 41.12 43.4C40.2133 43.7733 39.4667 43.96 38.88 43.96C37.6533 43.96 36.64 43.4267 35.84 42.36C35.0933 41.2933 34.72 39.96 34.72 38.36C34.72 35.2133 35.6267 31.8 37.44 28.12C28.8 30.2 21.36 31.24 15.12 31.24C11.2267 39.72 9.28 46.12 9.28 50.44C9.28 51.7733 9.41333 52.7067 9.68 53.24C9.94667 53.8267 10.1333 54.1733 10.24 54.28C10.4 54.3867 10.2667 54.44 9.84 54.44ZM50.39 45C46.07 45 43.91 42.7333 43.91 38.2C43.91 36.3867 44.31 34.4667 45.11 32.44C45.9633 30.36 47.0033 28.68 48.23 27.4C47.6433 26.3867 47.35 25.1333 47.35 23.64C47.35 22.0933 47.99 20.7067 49.27 19.48C50.55 18.2 52.1233 17.56 53.99 17.56C57.4567 17.56 59.8033 19.3733 61.03 23C63.5367 23.48 64.79 24.0667 64.79 24.76C64.79 25.56 64.5233 25.96 63.99 25.96L61.99 25.64C62.0433 26.1733 62.07 26.6533 62.07 27.08C62.1233 27.5067 62.15 27.88 62.15 28.2C62.15 32.5733 61.03 36.4933 58.79 39.96C56.55 43.32 53.75 45 50.39 45ZM49.35 26.68C52.9767 23.96 55.4833 22.6 56.87 22.6H57.11C56.3633 20.7333 54.9767 19.8 52.95 19.8C52.0433 19.8 51.2967 20.12 50.71 20.76C50.1233 21.3467 49.6967 22.0667 49.43 22.92C49.1633 23.7733 49.03 24.5467 49.03 25.24C49.03 25.88 49.1367 26.36 49.35 26.68ZM50.31 44.04C52.4967 44.04 54.55 42.3333 56.47 38.92C58.39 35.4533 59.35 32.1467 59.35 29C59.35 27.6133 59.11 26.4933 58.63 25.64C56.6567 25.96 54.4967 27.2133 52.15 29.4C52.6833 29.7733 53.11 29.96 53.43 29.96C53.75 29.9067 53.9367 29.88 53.99 29.88C54.2567 29.88 54.39 30.0133 54.39 30.28C54.39 30.7067 54.0433 30.92 53.35 30.92C52.7633 30.92 52.0967 30.7333 51.35 30.36C48.5233 33.6667 47.11 36.7867 47.11 39.72C47.11 42.6 48.1767 44.04 50.31 44.04ZM66.3419 46.52C63.9952 46.52 62.8219 45.2667 62.8219 42.76C62.8219 40.52 63.5685 37.5867 65.0619 33.96C65.6485 32.5733 66.2352 31.1867 66.8219 29.8C67.4085 28.4133 68.0752 26.84 68.8219 25.08C67.0085 24.3867 66.1019 23.3467 66.1019 21.96C66.1019 21.5333 66.2085 21.24 66.4219 21.08C67.2219 21.4533 68.4485 21.72 70.1019 21.88C71.8619 17.9333 72.7419 15.4267 72.7419 14.36C72.7419 13.1867 72.5285 12.6 72.1019 12.6L70.5019 13C70.3419 13 70.2619 12.92 70.2619 12.76C70.2619 12.3333 70.5819 12.0133 71.2219 11.8C71.8619 11.5333 72.3419 11.4 72.6619 11.4C75.0085 11.4 76.1819 12.7333 76.1819 15.4C76.1819 16.9467 75.7019 18.9733 74.7419 21.48C74.9552 21.6933 75.9152 21.8 77.6219 21.8C79.3819 21.8 80.7152 21.6133 81.6219 21.24C82.4752 20.8133 83.0885 20.6 83.4619 20.6C83.6219 20.6 83.7019 20.6533 83.7019 20.76C83.7019 20.92 83.5685 21.1333 83.3019 21.4C82.1819 22.36 80.8485 23.1867 79.3019 23.88C77.8085 24.5733 76.0752 25.0533 74.1019 25.32H73.8619C73.8085 25.32 73.7285 25.3467 73.6219 25.4C73.5152 25.4 73.3019 25.4533 72.9819 25.56C68.1285 35.2133 65.7019 41.3467 65.7019 43.96C65.7019 44.8133 66.0219 45.24 66.6619 45.24L68.9019 44.76L68.9819 44.84C68.9819 45.96 68.1019 46.52 66.3419 46.52ZM95.9756 51.96C95.1756 51.96 94.429 51.2133 93.7356 49.72C93.0423 48.28 92.6956 46.6267 92.6956 44.76C92.6956 37.3467 97.069 26.0667 105.816 10.92C106.029 10.4933 106.296 9.96 106.616 9.32C106.989 8.62667 107.442 7.82667 107.976 6.92C108.402 6.17333 108.856 5.53333 109.336 5C109.869 4.41333 110.296 4.12 110.616 4.12C111.309 4.12 112.056 4.28 112.856 4.6C113.709 4.92 114.136 5.29333 114.136 5.72C108.216 15.4267 104.402 22.0133 102.696 25.48C110.482 14.6533 117.282 9.24 123.096 9.24C125.922 9.24 127.336 10.8667 127.336 14.12C127.336 18.2267 124.856 25.32 119.896 35.4C121.282 34.12 123.149 32.3067 125.496 29.96C127.896 27.6133 130.749 24.7333 134.056 21.32C134.322 20.9467 134.829 20.36 135.576 19.56C136.322 18.7067 137.069 17.8533 137.816 17C139.896 14.8133 141.309 13.72 142.056 13.72C142.216 13.72 142.296 13.8 142.296 13.96C130.296 27.1333 122.136 35.6133 117.816 39.4L116.296 42.6C115.922 43.1333 115.069 43.4 113.736 43.4C112.402 43.4 111.736 43.0267 111.736 42.28C111.682 42.28 113.682 38.2 117.736 30.04C121.842 21.8267 123.896 16.3867 123.896 13.72C123.896 12.2267 123.309 11.48 122.136 11.48C119.202 11.48 115.869 13.2133 112.136 16.68C110.322 18.3867 108.536 20.3333 106.776 22.52C105.016 24.7067 103.282 27.0533 101.576 29.56C99.389 32.8133 97.7623 35.9067 96.6956 38.84C95.6823 41.72 95.1756 44.44 95.1756 47C95.1756 48.2267 95.2823 49.16 95.4956 49.8C95.709 50.4933 95.869 50.8933 95.9756 51C96.6156 51.64 96.6156 51.96 95.9756 51.96ZM139.016 48.36C137.469 48.36 136.269 47.6133 135.416 46.12C134.562 44.6267 134.136 42.7867 134.136 40.6C134.136 39.5867 134.216 38.4933 134.376 37.32C134.536 36.0933 134.749 34.76 135.016 33.32C135.336 31.7733 135.709 30.2 136.136 28.6C136.562 27 137.042 25.3733 137.576 23.72C138.642 20.36 140.002 17.5333 141.656 15.24C143.362 12.84 145.069 11.64 146.776 11.64C147.576 11.64 147.976 11.8 147.976 12.12C147.976 12.3333 147.016 14.1733 145.096 17.64C139.976 26.92 137.416 34.7333 137.416 41.08C137.416 45.24 138.109 47.32 139.496 47.32C140.776 47.32 142.616 44.52 145.016 38.92C145.389 38.2267 145.682 37.88 145.896 37.88C146.056 37.88 146.136 38.0667 146.136 38.44C146.136 38.76 146.109 39 146.056 39.16C144.562 45.2933 142.216 48.36 139.016 48.36ZM152.963 45.88C148.429 45.88 146.162 43.7733 146.162 39.56C146.162 36.3067 147.763 32.36 150.963 27.72C154.269 23.08 157.416 20.76 160.403 20.76C161.683 20.76 162.803 21.1867 163.763 22.04C164.776 22.84 165.283 23.8267 165.283 25C165.283 26.9733 164.029 28.9733 161.523 31C159.069 32.9733 156.643 33.96 154.243 33.96C153.763 33.96 153.523 33.8533 153.523 33.64L153.763 33.24C159.896 31.32 162.963 28.1733 162.963 23.8C162.963 23.16 162.749 22.84 162.323 22.84C161.736 22.84 160.669 23.4533 159.123 24.68C157.789 25.7467 156.536 26.9733 155.363 28.36C154.243 29.7467 153.229 31.1867 152.323 32.68C150.403 35.9333 149.443 38.6533 149.443 40.84C149.443 42.9733 150.269 44.04 151.923 44.04C153.843 44.04 155.949 43.0533 158.243 41.08C158.989 40.3867 159.789 39.6133 160.643 38.76C161.496 37.8533 162.429 36.8667 163.443 35.8C165.416 33.6667 166.456 32.6 166.562 32.6C166.883 32.6 167.043 32.7333 167.043 33C167.043 33.2133 166.989 33.4267 166.883 33.64C161.283 41.8 156.643 45.88 152.963 45.88ZM168.939 45.64C167.872 45.64 166.885 45.16 165.979 44.2C165.125 43.1867 164.699 41.9067 164.699 40.36C164.699 38.8133 165.632 36.4133 167.499 33.16C169.365 29.96 171.659 27.08 174.379 24.52C177.045 22.0133 179.339 20.76 181.259 20.76H182.059C184.032 20.76 185.712 21.16 187.099 21.96C188.485 22.7067 189.179 23.72 189.179 25C189.179 25.5867 188.939 25.88 188.459 25.88C188.299 25.88 188.219 25.8 188.219 25.64C187.365 23.6667 186.059 22.68 184.299 22.68C181.259 22.68 177.792 25.1867 173.899 30.2C170.005 35.1067 168.059 38.8933 168.059 41.56C168.059 42.5733 168.325 43.08 168.859 43.08C171.259 43.08 176.299 37.6667 183.979 26.84C183.925 26.8933 183.952 26.8933 184.059 26.84C184.219 26.7333 184.352 26.68 184.459 26.68C184.725 26.68 185.285 26.9467 186.139 27.48C186.992 27.96 187.419 28.3867 187.419 28.76C187.419 28.76 187.312 28.9467 187.099 29.32C186.885 29.64 186.619 30.1467 186.299 30.84C185.445 32.6533 184.779 34.44 184.299 36.2C183.872 37.9067 183.659 39.4 183.659 40.68C183.659 43.5067 184.352 44.92 185.739 44.92L186.539 44.76L186.699 44.84C186.699 45.32 186.032 45.56 184.699 45.56C183.419 45.56 182.352 44.9733 181.499 43.8C180.699 42.5733 180.299 40.9467 180.299 38.92C180.299 36.9467 180.645 34.76 181.339 32.36C181.285 32.52 181.099 32.8133 180.779 33.24C180.459 33.6667 179.952 34.4133 179.259 35.48C174.885 42.2533 171.445 45.64 168.939 45.64ZM195.909 45.72C193.349 45.72 192.069 43.5867 192.069 39.32C192.069 36.6 192.922 32.12 194.629 25.88C196.335 19.5867 198.495 13.8 201.109 8.52C203.775 3.13333 206.122 0.439997 208.149 0.439997C209.322 0.439997 210.495 0.839996 211.669 1.64C212.842 2.38667 213.429 3.21333 213.429 4.12C213.429 7.96 207.775 16.4933 196.469 29.72C196.042 31.6933 195.695 33.5333 195.429 35.24C195.215 36.9467 195.109 38.5467 195.109 40.04C195.109 42.9733 195.749 44.44 197.029 44.44L198.309 44.04C198.575 44.04 198.709 44.1733 198.709 44.44C198.709 45.2933 197.775 45.72 195.909 45.72ZM197.029 27.64C206.682 15.0533 211.509 7.13333 211.509 3.88C211.509 3.24 211.322 2.92 210.949 2.92C209.349 2.92 207.029 5.77333 203.989 11.48C200.949 17.1867 198.629 22.5733 197.029 27.64ZM209.099 46.84C207.765 46.84 206.592 46.6 205.579 46.12C204.619 45.64 204.139 45.1867 204.139 44.76C210.272 43.48 213.339 41.9333 213.339 40.12C213.339 39.7467 212.619 38.92 211.179 37.64C208.405 35.1867 207.019 32.44 207.019 29.4C207.019 27.2133 208.379 25.0533 211.099 22.92C213.925 20.68 216.485 19.56 218.779 19.56C219.152 19.56 219.899 20.12 221.019 21.24C222.139 22.36 222.699 23.08 222.699 23.4C222.699 23.6667 222.565 23.8 222.299 23.8C221.712 23.6933 221.232 23.6133 220.859 23.56C220.485 23.4533 220.219 23.4 220.059 23.4C217.659 23.4 215.179 24.28 212.619 26.04C210.112 27.8 208.859 29.5867 208.859 31.4C208.859 31.72 210.112 33.3467 212.619 36.28C215.125 39.1067 216.379 41.0533 216.379 42.12C216.379 43.1867 215.632 44.2267 214.139 45.24C213.339 45.7733 212.485 46.1733 211.579 46.44C210.725 46.7067 209.899 46.84 209.099 46.84Z" fill="#FFB30E"/>
</svg>
